<svg width="132" height="132" viewBox="0 0 132 132" fill="none" xmlns="http://www.w3.org/2000/svg">
<path d="M115.5 104.5V27.5C115.5 21.45 110.55 16.5 104.5 16.5H27.5C21.45 16.5 16.5 21.45 16.5 27.5V104.5C16.5 110.55 21.45 115.5 27.5 115.5H104.5C110.55 115.5 115.5 110.55 115.5 104.5ZM48.95 76.89L60.5 90.805L77.55 68.86C78.65 67.43 80.85 67.43 81.95 68.915L101.255 94.655C101.561 95.0636 101.748 95.5494 101.794 96.058C101.84 96.5667 101.743 97.078 101.515 97.5348C101.286 97.9916 100.935 98.3758 100.501 98.6443C100.066 98.9128 99.5657 99.055 99.055 99.055H33.11C30.8 99.055 29.535 96.415 30.965 94.6L44.66 77C45.705 75.57 47.795 75.515 48.95 76.89Z" fill="#C4C4C4"/>
</svg>
